<svg xmlns="http://www.w3.org/2000/svg" width="103.673" height="75.147" viewBox="0 0 103.673 75.147"><defs><style>.a{fill:#b38d43;}</style></defs><g transform="translate(0 -70.297)"><path class="a" d="M84.094,196.389l-8.324,8.324c-.109-.132-.224-.26-.347-.383l-10.75-10.75a1.522,1.522,0,0,0-2.152,2.152l10.75,10.75a2.37,2.37,0,1,1-3.352,3.352l-5.973-5.973a1.522,1.522,0,1,0-2.152,2.152l5.973,5.973h0a2.37,2.37,0,0,1-3.352,3.351l-5.973-5.973a1.522,1.522,0,0,0-2.152,2.152l5.973,5.973a2.37,2.37,0,1,1-3.352,3.352l-5.973-5.973a1.522,1.522,0,0,0-2.152,2.152l5.973,5.973a2.37,2.37,0,1,1-3.351,3.352l-3.87-3.87a5.357,5.357,0,0,0-.8-6.534l-.092-.092a5.34,5.34,0,0,0-4.318-1.537,5.341,5.341,0,0,0-4.052-4.825,5.352,5.352,0,0,0-7.3-6.75,5.345,5.345,0,0,0-8.926-2.324l-.628.628-.458-.458a3.87,3.87,0,0,1-1.141-2.755v-3.969a1.522,1.522,0,0,0-.446-1.076l-6.5-6.5L16.7,184.46a1.522,1.522,0,0,0-2.152-2.152L12.1,184.755a1.185,1.185,0,0,1-1.674,0L2.6,176.924a1.522,1.522,0,1,0-2.152,2.152l7.831,7.831a4.2,4.2,0,0,0,4.019,1.1l6.478,6.478v3.338a6.894,6.894,0,0,0,2.032,4.907l.458.458-.509.509a5.346,5.346,0,0,0,3.782,9.128l.065,0c0,.023,0,.045,0,.068a5.349,5.349,0,0,0,5.349,5.349l.068,0a5.338,5.338,0,0,0,5.345,5.411l.067,0a5.332,5.332,0,0,0,1.562,3.85l.092.092a5.349,5.349,0,0,0,7.564,0l2.854-2.854,3.757,3.757a5.409,5.409,0,0,0,9.236-3.92l.095,0A5.407,5.407,0,0,0,66,219.07l.095,0a5.409,5.409,0,0,0,5.413-5.411c0-.032,0-.063,0-.095l.093,0a5.4,5.4,0,0,0,5.4-5.774l9.254-9.254a1.522,1.522,0,0,0-2.153-2.152ZM22.906,209.113a2.305,2.305,0,0,1,0-3.26l3.289-3.289a2.305,2.305,0,1,1,3.26,3.26l-3.289,3.289a2.308,2.308,0,0,1-3.26,0Zm7.042,6.087a2.305,2.305,0,0,1-1.63-3.935l3.289-3.289,2.045-2.045a2.305,2.305,0,0,1,3.26,3.26l-5.334,5.334a2.29,2.29,0,0,1-1.63.675Zm3.782,4.737a2.308,2.308,0,0,1,0-3.26l3.63-3.63a2.305,2.305,0,0,1,3.261,3.259l-3.631,3.631A2.307,2.307,0,0,1,33.73,219.937Zm8.764,5.5a2.3,2.3,0,0,1-3.26,0l-.092-.092a2.307,2.307,0,0,1,0-3.26l3.63-3.63,0,0,.455-.456a2.308,2.308,0,0,1,3.26,0l.091.092a2.307,2.307,0,0,1,0,3.26Z" transform="translate(0 -84.637)"/><path class="a" d="M176.652,98.7a1.522,1.522,0,0,0-2.152,0l-5.7,5.7a.207.207,0,0,1-.288,0l-20.16-19.257a.206.206,0,0,1,0-.295L160.3,72.895a1.522,1.522,0,0,0-2.152-2.152L146.194,82.7a3.243,3.243,0,0,0-.282,4.268l-5.472,5.366-5.156-2.875a4.544,4.544,0,0,0-2.209-.575H118.426l-1.115-1.115a10.259,10.259,0,0,0-3.624-2.347l-4.055-1.545L107.757,82a4.231,4.231,0,0,0-.636-5.155l-6.106-6.106a1.522,1.522,0,1,0-2.152,2.152L104.97,79a1.185,1.185,0,0,1,0,1.674L92.56,93.085a1.522,1.522,0,0,0,2.152,2.152L105.7,84.25l2.01,2.01a1.524,1.524,0,0,0,.534.346l4.359,1.661a7.232,7.232,0,0,1,2.5,1.6c-.092.078-.183.158-.269.244L109.045,95.9a6.08,6.08,0,0,0,8.161,9l4.38-3.6h4.562l5.213,5.213a1.522,1.522,0,0,0,2.152-2.152l-3.766-3.766a1.52,1.52,0,0,0-1.283-2.338H121.04a1.521,1.521,0,0,0-.966.346l-4.8,3.947a3.037,3.037,0,0,1-4.077-4.494l5.788-5.788a1.139,1.139,0,0,1,.811-.336h15.279a1.494,1.494,0,0,1,.727.189l5.7,3.18a2.22,2.22,0,0,0,2.619-.351l5.96-5.846,16.41,15.675-2.389,2.389a1.522,1.522,0,0,0,2.152,2.152l2.458-2.458a3.266,3.266,0,0,0,4.235-.307l5.7-5.7A1.522,1.522,0,0,0,176.652,98.7Z" transform="translate(-73.425 0)"/></g></svg>