<svg xmlns="http://www.w3.org/2000/svg" width="395.775" height="348.982" viewBox="0 0 395.775 348.982"><defs><style>.a{opacity:0.15;}</style></defs><g class="a" transform="translate(0 -7.328)"><path d="M159,76.623c9.9-4.151,14.048-15.964,9.578-25.542L152.932,18.2a19.087,19.087,0,0,0-24.9-9.256c-27.138,11.494-50.445,26.5-68.963,44.7C36.4,75.027,21.072,99.611,12.771,126.749,4.47,154.21,0,191.562,0,239.133v98.017a19.213,19.213,0,0,0,19.156,19.156H144.631a19.213,19.213,0,0,0,19.156-19.156V211.676a19.211,19.211,0,0,0-19.156-19.156H84.608c.639-32.25,8.3-58.108,22.349-77.587C118.451,99.295,135.692,86.524,159,76.623Z" transform="translate(0 0)"/><path d="M229.379,76.4c9.9-4.151,14.045-15.964,9.578-25.542L223.313,18.3a19.089,19.089,0,0,0-24.9-9.259c-26.819,11.494-49.81,26.5-68.644,44.379-22.672,21.711-38.313,46.295-46.617,73.433Q70.7,167.075,70.7,238.916v98.017A19.213,19.213,0,0,0,89.856,356.09H215.331a19.213,19.213,0,0,0,19.156-19.156V211.459A19.211,19.211,0,0,0,215.331,192.3H154.988c.639-32.25,8.3-58.108,22.349-77.587C188.831,99.074,206.072,86.3,229.379,76.4Z" transform="translate(155.027 0.22)"/></g></svg>