<svg xmlns="http://www.w3.org/2000/svg" width="82.973" height="74.995" viewBox="0 0 82.973 74.995"><defs><style>.a{fill:#b38d43;}</style></defs><g transform="translate(0 -24.615)"><g transform="translate(0 24.615)"><g transform="translate(0 0)"><path class="a" d="M74.2,24.615H8.776A8.786,8.786,0,0,0,0,33.391V74.878a8.786,8.786,0,0,0,8.776,8.776h21.19L27.413,96.419H19.148a1.6,1.6,0,1,0,0,3.191H63.825a1.6,1.6,0,1,0,0-3.191H55.56L53.007,83.654H74.2a8.786,8.786,0,0,0,8.776-8.776V33.391A8.786,8.786,0,0,0,74.2,24.615Zm-43.529,71.8,2.553-12.765H49.752l2.553,12.765ZM79.782,74.878A5.591,5.591,0,0,1,74.2,80.462H8.776a5.591,5.591,0,0,1-5.585-5.585V70.889H79.782v3.989Zm0-7.18H3.191V64.506h9.574a1.6,1.6,0,1,0,0-3.191H3.191V33.391a5.591,5.591,0,0,1,5.585-5.585H74.2a5.591,5.591,0,0,1,5.585,5.585V67.7Z" transform="translate(0 -24.615)"/></g></g><g transform="translate(38.295 72.484)"><path class="a" d="M239.5,320a3.191,3.191,0,1,0,3.191,3.191A3.195,3.195,0,0,0,239.5,320Z" transform="translate(-236.308 -320)"/></g><g transform="translate(36.594 42.86)"><path class="a" d="M243.767,149.512l-3.385-3.385,2.821-2.821a1.6,1.6,0,0,0-.77-2.683l-14.668-3.385a1.6,1.6,0,0,0-1.914,1.914l3.385,14.668a1.6,1.6,0,0,0,2.683.77l2.821-2.821,3.385,3.385a1.6,1.6,0,0,0,2.257,0l3.385-3.385A1.6,1.6,0,0,0,243.767,149.512Zm-4.513,2.257-3.385-3.385a1.6,1.6,0,0,0-2.257,0L231.7,150.3l-2.163-9.375,9.375,2.163L237,145a1.6,1.6,0,0,0,0,2.257l3.385,3.385Z" transform="translate(-225.811 -137.198)"/></g><g transform="translate(30.599 36.864)"><g transform="translate(0 0)"><path class="a" d="M193.136,102.264l-1.6-1.6a1.6,1.6,0,0,0-2.257,2.257l1.6,1.6a1.6,1.6,0,0,0,2.256-2.257Z" transform="translate(-188.816 -100.201)"/></g></g><g transform="translate(27.955 43.247)"><path class="a" d="M176.356,139.587H174.1a1.6,1.6,0,0,0,0,3.191h2.256a1.6,1.6,0,0,0,0-3.191Z" transform="translate(-172.504 -139.587)"/></g><g transform="translate(30.599 48.034)"><path class="a" d="M193.137,169.592a1.6,1.6,0,0,0-2.256,0l-1.6,1.6a1.6,1.6,0,1,0,2.256,2.257l1.6-1.6A1.6,1.6,0,0,0,193.137,169.592Z" transform="translate(-188.817 -169.124)"/></g><g transform="translate(41.769 36.864)"><g transform="translate(0 0)"><path class="a" d="M262.06,100.669a1.6,1.6,0,0,0-2.257,0l-1.6,1.6a1.6,1.6,0,1,0,2.257,2.257l1.6-1.6A1.6,1.6,0,0,0,262.06,100.669Z" transform="translate(-257.74 -100.201)"/></g></g><g transform="translate(36.982 34.221)"><g transform="translate(0 0)"><path class="a" d="M229.8,83.888a1.6,1.6,0,0,0-1.6,1.6V87.74a1.6,1.6,0,0,0,3.191,0V85.484A1.6,1.6,0,0,0,229.8,83.888Z" transform="translate(-228.203 -83.888)"/></g></g><g transform="translate(15.956 61.315)"><path class="a" d="M101.621,252.365a1.547,1.547,0,0,0-.091-.3,1.614,1.614,0,0,0-.147-.275,1.55,1.55,0,0,0-.44-.44,1.582,1.582,0,0,0-.276-.147,1.5,1.5,0,0,0-.3-.091,1.571,1.571,0,0,0-.622,0,1.5,1.5,0,0,0-.3.091,1.56,1.56,0,0,0-.276.147,1.55,1.55,0,0,0-.44.44,1.625,1.625,0,0,0-.147.275,1.548,1.548,0,0,0-.091.3,1.532,1.532,0,0,0,0,.622,1.5,1.5,0,0,0,.091.3,1.56,1.56,0,0,0,.147.276,1.55,1.55,0,0,0,.44.44,1.582,1.582,0,0,0,.276.147,1.616,1.616,0,0,0,.3.093,1.611,1.611,0,0,0,.622,0,1.616,1.616,0,0,0,.3-.093,1.56,1.56,0,0,0,.276-.147,1.55,1.55,0,0,0,.44-.44,1.582,1.582,0,0,0,.147-.276,1.5,1.5,0,0,0,.091-.3,1.532,1.532,0,0,0,0-.622Z" transform="translate(-98.462 -251.081)"/></g></g></svg>