<svg xmlns="http://www.w3.org/2000/svg" width="23" height="23" viewBox="0 0 23 23"><defs><style>.a{fill:#fff;}</style></defs><path class="a" d="M10.337,10.26a3.74,3.74,0,0,0-.69,4.995,16.378,16.378,0,0,0,4.1,4.1,3.74,3.74,0,0,0,4.995-.69l.013.006a17.155,17.155,0,0,0,4.691,1.4v3.373h0A17.535,17.535,0,0,1,5.556,5.56v0H8.928a17.144,17.144,0,0,0,1.4,4.689ZM23.443,26h1.279A1.278,1.278,0,0,0,26,24.722V18.969a1.278,1.278,0,0,0-1.09-1.264l-1.091-.162a14.587,14.587,0,0,1-3.991-1.193l-.962-.446a1.278,1.278,0,0,0-1.577.417l-.435.61a1.194,1.194,0,0,1-1.65.323A13.824,13.824,0,0,1,11.746,13.8a1.194,1.194,0,0,1,.323-1.65l.609-.435a1.278,1.278,0,0,0,.417-1.577l-.446-.963a14.588,14.588,0,0,1-1.193-3.99L11.294,4.09A1.278,1.278,0,0,0,10.03,3H4.278A1.278,1.278,0,0,0,3,4.278v1.28A20.089,20.089,0,0,0,23.443,26Z" transform="translate(-3 -3)"/></svg>