<svg xmlns="http://www.w3.org/2000/svg" width="74.028" height="75.296" viewBox="0 0 74.028 75.296"><defs><style>.a{fill:#b38d43;}</style></defs><path class="a" d="M5.743,44.1l-1.76,1.757,14.851,3.427a1.321,1.321,0,0,1,.991.99l3.427,14.854,1.76-1.761L21.4,47.709Z" transform="translate(-3.983 10.168)"/><path class="a" d="M37.138,9A21.138,21.138,0,1,0,58.276,30.138,21.138,21.138,0,0,0,37.138,9Zm8.088,24.265,2.44,9.764a1.321,1.321,0,0,1-.538,1.412,1.336,1.336,0,0,1-.742.229,1.312,1.312,0,0,1-.769-.247l-8.479-6.056-8.48,6.056a1.321,1.321,0,0,1-2.05-1.4l2.441-9.764-7.29-6.077a1.321,1.321,0,0,1,.847-2.333h9.615l3.664-10.988a1.321,1.321,0,0,1,2.51,0l3.658,10.988h9.618a1.321,1.321,0,0,1,.847,2.336Z" transform="translate(-0.124 -1.104)"/><path class="a" d="M37.355,24.291l-2.71-8.13-2.711,8.13a1.321,1.321,0,0,1-1.252.9H23.761l5.125,4.269A1.321,1.321,0,0,1,29.32,30.8l-1.772,7.088,6.328-4.52a1.321,1.321,0,0,1,1.536,0l6.328,4.52L39.969,30.8a1.321,1.321,0,0,1,.436-1.336L45.528,25.2H38.609a1.321,1.321,0,0,1-1.254-.9Z" transform="translate(2.368 1.196)"/><path class="a" d="M32.371,50.4A6.569,6.569,0,0,1,24.032,47a2.464,2.464,0,0,0-2.123-1.453,6.569,6.569,0,0,1-6.219-6.474,2.88,2.88,0,0,0-1.206-2.327l-7.5,7.5,14.851,3.427a1.321,1.321,0,0,1,.991.99l3.427,14.852L37.4,52.372a6.54,6.54,0,0,1-1.982-1.333A2.81,2.81,0,0,0,32.371,50.4Z" transform="translate(-3.02 7.808)"/><path class="a" d="M46.9,59.128a3.924,3.924,0,0,0,4.949-2.065,5.561,5.561,0,0,1,5.037-3.3,3.922,3.922,0,0,0,3.868-3.715,5.1,5.1,0,0,1,2.992-4.39,3.928,3.928,0,0,0,2.031-4.985A5.452,5.452,0,0,1,67,34.819a3.925,3.925,0,0,0,.132-5.382,5.1,5.1,0,0,1-.99-5.22,3.924,3.924,0,0,0-2.065-4.949,5.562,5.562,0,0,1-3.3-5.036,3.925,3.925,0,0,0-3.715-3.867,5.1,5.1,0,0,1-4.391-2.992,3.929,3.929,0,0,0-4.985-2.031,5.447,5.447,0,0,1-5.851-1.218,4.022,4.022,0,0,0-5.381-.132,5.092,5.092,0,0,1-5.22.99A3.924,3.924,0,0,0,26.28,7.046a5.561,5.561,0,0,1-5.037,3.3,3.922,3.922,0,0,0-3.868,3.715,5.1,5.1,0,0,1-2.992,4.386,3.928,3.928,0,0,0-2.031,4.986,5.451,5.451,0,0,1-1.218,5.85A3.928,3.928,0,0,0,11,34.668a5.1,5.1,0,0,1,.99,5.22,3.924,3.924,0,0,0,2.065,4.949,5.562,5.562,0,0,1,3.3,5.036,3.925,3.925,0,0,0,3.714,3.87,5.1,5.1,0,0,1,4.391,2.992,3.926,3.926,0,0,0,4.983,2.029,5.564,5.564,0,0,1,2.013-.371,5.46,5.46,0,0,1,3.847,1.6,4.023,4.023,0,0,0,5.381.132,5.1,5.1,0,0,1,5.213-.993Zm-7.836-3.29a23.78,23.78,0,1,1,23.78-23.78A23.78,23.78,0,0,1,39.065,55.838Z" transform="translate(-2.051 -3.023)"/><path class="a" d="M49.56,47.586l14.854-3.427L57.3,37.046c-.055.026-.1.065-.159.09a2.469,2.469,0,0,0-1.453,2.124,6.566,6.566,0,0,1-6.474,6.217,2.906,2.906,0,0,0-2.657,1.747,6.57,6.57,0,0,1-8.285,3.452,2.468,2.468,0,0,0-2.523.478,6.559,6.559,0,0,1-1.765,1.114l11.16,11.161,3.428-14.854a1.321,1.321,0,0,1,.99-.99Z" transform="translate(5.651 7.903)"/><path class="a" d="M63.367,44.1,47.711,47.709,44.1,63.367l1.761,1.761,3.427-14.854a1.321,1.321,0,0,1,.991-.99l14.85-3.428Z" transform="translate(8.9 10.168)"/></svg>