<svg xmlns="http://www.w3.org/2000/svg" width="23" height="23" viewBox="0 0 23 23"><defs><style>.a{fill:#fff;}</style></defs><g transform="translate(-2 -2)"><path class="a" d="M12.5,15A4.5,4.5,0,1,0,8,10.5,4.5,4.5,0,0,0,12.5,15Zm0-6.747A2.249,2.249,0,1,1,10.249,10.5,2.249,2.249,0,0,1,12.5,8.249Z" transform="translate(1.002 0.668)"/><path class="a" d="M4.3,25A2.3,2.3,0,0,1,2,22.7V4.3A2.3,2.3,0,0,1,4.3,2H22.7A2.3,2.3,0,0,1,25,4.3V22.7A2.3,2.3,0,0,1,22.7,25Zm0-20.7V22.7H7.75a5.75,5.75,0,0,1,11.5,0H22.7V4.3ZM16.95,22.7a3.45,3.45,0,0,0-6.9,0Z"/></g></svg>